<svg xmlns="http://www.w3.org/2000/svg" width="1920" height="1080" viewBox="0 0 1920 1080">
  <defs>
    <linearGradient id="grad3" x1="0%" y1="0%" x2="100%" y2="100%">
      <stop offset="0%" style="stop-color:#2a3a4e;stop-opacity:1" />
      <stop offset="100%" style="stop-color:#1a2a3e;stop-opacity:1" />
    </linearGradient>
  </defs>
  <rect width="1920" height="1080" fill="url(#grad3)"/>
  
  <!-- Modern kitchen -->
  <rect x="200" y="200" width="650" height="520" fill="#3a4a6a" stroke="#5a7aa0" stroke-width="2" rx="20"/>
  
  <!-- Kitchen counter -->
  <rect x="250" y="500" width="550" height="150" fill="#4a6a8a" rx="10"/>
  
  <!-- Stovetop -->
  <rect x="350" y="520" width="120" height="100" fill="#2a4a6a" rx="5"/>
  <circle cx="380" cy="550" r="15" fill="#1a3a5a"/>
  <circle cx="420" cy="550" r="15" fill="#1a3a5a"/>
  <circle cx="380" cy="600" r="15" fill="#1a3a5a"/>
  <circle cx="420" cy="600" r="15" fill="#1a3a5a"/>
  
  <!-- Sink -->
  <rect x="520" y="540" width="100" height="80" fill="#5a8aaa" rx="5"/>
  
  <!-- Cabinet -->
  <rect x="280" y="280" width="480" height="180" fill="#2a4a6a" stroke="#3a5a7a" stroke-width="2" rx="8"/>
  <line x1="330" y1="280" x2="330" y2="460" stroke="#3a5a7a" stroke-width="1"/>
  <line x1="380" y1="280" x2="380" y2="460" stroke="#3a5a7a" stroke-width="1"/>
  <line x1="430" y1="280" x2="430" y2="460" stroke="#3a5a7a" stroke-width="1"/>
  <line x1="480" y1="280" x2="480" y2="460" stroke="#3a5a7a" stroke-width="1"/>
  <line x1="530" y1="280" x2="530" y2="460" stroke="#3a5a7a" stroke-width="1"/>
  <line x1="280" y1="360" x2="760" y2="360" stroke="#3a5a7a" stroke-width="1"/>
  
  <!-- Island -->
  <rect x="1000" y="350" width="600" height="280" fill="#3a5a7a" stroke="#5a7aa0" stroke-width="2" rx="10"/>
  <rect x="1050" y="400" width="500" height="180" fill="#4a6a8a"/>
  
  <!-- Bar stools -->
  <rect x="1100" y="540" width="60" height="20" fill="#2a4a6a" rx="5"/>
  <rect x="1095" y="560" width="70" height="80" fill="#3a5a7a" rx="5"/>
  <circle cx="1130" cy="650" r="25" fill="#2a4a6a"/>
  
  <rect x="1250" y="540" width="60" height="20" fill="#2a4a6a" rx="5"/>
  <rect x="1245" y="560" width="70" height="80" fill="#3a5a7a" rx="5"/>
  <circle cx="1280" cy="650" r="25" fill="#2a4a6a"/>
  
  <!-- Decorative circles -->
  <circle cx="1700" cy="300" r="80" fill="#2a5a7a" opacity="0.5"/>
  <circle cx="150" cy="900" r="100" fill="#2a5a7a" opacity="0.5"/>
  
  <!-- Text -->
  <text x="900" y="200" font-size="72" font-weight="bold" fill="#ffffff" font-family="Arial">Complete Design Solutions</text>
  <text x="900" y="300" font-size="32" fill="#a0c0e8" font-family="Arial">From Concept to Reality</text>
  <text x="900" y="400" font-size="24" fill="#80a0c8" font-family="Arial">Full-service interior design from space planning to furniture selection</text>
</svg>